<svg xmlns="http://www.w3.org/2000/svg" viewBox="0 0 900 430" width="900" height="430" role="img" aria-label="Corrélation : la clé de regroupement suit la forme de l'attaque"><defs><marker id="arrow" viewBox="0 0 10 10" refX="9" refY="5" markerWidth="6" markerHeight="6" orient="auto-start-reverse"><path d="M 0 0 L 10 5 L 0 10 z" fill="#7d8590"/></marker></defs><rect width="900" height="430" rx="12" fill="#0d1117"/><rect x="18" y="34" width="274" height="258" rx="10" fill="#161b22" stroke="#30363d" stroke-width="1.5"/><text x="155" y="62" font-family="-apple-system, BlinkMacSystemFont, 'Segoe UI', Inter, Roboto, sans-serif" font-size="13" font-weight="600" fill="#22d3ee" text-anchor="middle">Un vers plusieurs</text><text x="155" y="80" font-family="-apple-system, BlinkMacSystemFont, 'Segoe UI', Inter, Roboto, sans-serif" font-size="10.5" fill="#7d8590" text-anchor="middle">balayage de ports ou de réseau</text><circle cx="69" cy="164" r="9" fill="#22d3ee"/><circle cx="225" cy="108" r="5" fill="#7d8590"/><path d="M 81 164 L 211 108" fill="none" stroke="#7d8590" stroke-width="1.6" marker-end="url(#arrow)"/><circle cx="225" cy="136" r="5" fill="#7d8590"/><path d="M 81 164 L 211 136" fill="none" stroke="#7d8590" stroke-width="1.6" marker-end="url(#arrow)"/><circle cx="225" cy="164" r="5" fill="#7d8590"/><path d="M 81 164 L 211 164" fill="none" stroke="#7d8590" stroke-width="1.6" marker-end="url(#arrow)"/><circle cx="225" cy="192" r="5" fill="#7d8590"/><path d="M 81 164 L 211 192" fill="none" stroke="#7d8590" stroke-width="1.6" marker-end="url(#arrow)"/><circle cx="225" cy="220" r="5" fill="#7d8590"/><path d="M 81 164 L 211 220" fill="none" stroke="#7d8590" stroke-width="1.6" marker-end="url(#arrow)"/><rect x="38" y="240" width="234" height="34" rx="8" fill="#0b2b33" stroke="#22d3ee" stroke-width="1.4"/><text x="155.0" y="261.0" font-family="-apple-system, BlinkMacSystemFont, 'Segoe UI', Inter, Roboto, sans-serif" font-size="11.5" font-weight="600" fill="#22d3ee" text-anchor="middle">regroupé sur la source</text><rect x="312" y="34" width="274" height="258" rx="10" fill="#161b22" stroke="#30363d" stroke-width="1.5"/><text x="449" y="62" font-family="-apple-system, BlinkMacSystemFont, 'Segoe UI', Inter, Roboto, sans-serif" font-size="13" font-weight="600" fill="#22d3ee" text-anchor="middle">Plusieurs vers un</text><text x="449" y="80" font-family="-apple-system, BlinkMacSystemFont, 'Segoe UI', Inter, Roboto, sans-serif" font-size="10.5" fill="#7d8590" text-anchor="middle">inondation, slowloris</text><circle cx="379" cy="108" r="5" fill="#7d8590"/><path d="M 391 108 L 521 164" fill="none" stroke="#7d8590" stroke-width="1.6" marker-end="url(#arrow)"/><circle cx="379" cy="136" r="5" fill="#7d8590"/><path d="M 391 136 L 521 164" fill="none" stroke="#7d8590" stroke-width="1.6" marker-end="url(#arrow)"/><circle cx="379" cy="164" r="5" fill="#7d8590"/><path d="M 391 164 L 521 164" fill="none" stroke="#7d8590" stroke-width="1.6" marker-end="url(#arrow)"/><circle cx="379" cy="192" r="5" fill="#7d8590"/><path d="M 391 192 L 521 164" fill="none" stroke="#7d8590" stroke-width="1.6" marker-end="url(#arrow)"/><circle cx="379" cy="220" r="5" fill="#7d8590"/><path d="M 391 220 L 521 164" fill="none" stroke="#7d8590" stroke-width="1.6" marker-end="url(#arrow)"/><circle cx="535" cy="164" r="9" fill="#22d3ee"/><rect x="332" y="240" width="234" height="34" rx="8" fill="#0b2b33" stroke="#22d3ee" stroke-width="1.4"/><text x="449.0" y="261.0" font-family="-apple-system, BlinkMacSystemFont, 'Segoe UI', Inter, Roboto, sans-serif" font-size="11.5" font-weight="600" fill="#22d3ee" text-anchor="middle">regroupé sur la victime</text><rect x="606" y="34" width="274" height="258" rx="10" fill="#161b22" stroke="#30363d" stroke-width="1.5"/><text x="743" y="62" font-family="-apple-system, BlinkMacSystemFont, 'Segoe UI', Inter, Roboto, sans-serif" font-size="13" font-weight="600" fill="#22d3ee" text-anchor="middle">Un vers un</text><text x="743" y="80" font-family="-apple-system, BlinkMacSystemFont, 'Segoe UI', Inter, Roboto, sans-serif" font-size="10.5" fill="#7d8590" text-anchor="middle">force brute, balise, exfiltration</text><circle cx="669" cy="164" r="9" fill="#22d3ee"/><circle cx="817" cy="164" r="9" fill="#22d3ee"/><path d="M 683 164 L 801 164" fill="none" stroke="#7d8590" stroke-width="1.6" marker-end="url(#arrow)"/><rect x="626" y="240" width="234" height="34" rx="8" fill="#0b2b33" stroke="#22d3ee" stroke-width="1.4"/><text x="743.0" y="261.0" font-family="-apple-system, BlinkMacSystemFont, 'Segoe UI', Inter, Roboto, sans-serif" font-size="11.5" font-weight="600" fill="#22d3ee" text-anchor="middle">regroupé sur la paire</text><path d="M 450 300 L 450 326" fill="none" stroke="#7d8590" stroke-width="1.6" marker-end="url(#arrow)"/><rect x="298" y="330" width="304" height="50" rx="8" fill="#0b2b33" stroke="#22d3ee" stroke-width="1.4"/><text x="450.0" y="351.0" font-family="-apple-system, BlinkMacSystemFont, 'Segoe UI', Inter, Roboto, sans-serif" font-size="11.5" font-weight="600" fill="#22d3ee" text-anchor="middle">8 994 alertes deviennent 1 incident</text><text x="450.0" y="367.0" font-family="-apple-system, BlinkMacSystemFont, 'Segoe UI', Inter, Roboto, sans-serif" font-size="10.5" fill="#7d8590" text-anchor="middle">mesuré en direct sur un balayage de ports</text><text x="18" y="412" font-family="-apple-system, BlinkMacSystemFont, 'Segoe UI', Inter, Roboto, sans-serif" font-size="11" fill="#7d8590">Une inondation produit des milliers d'alertes par minute. Les afficher une par une est la manière dont un SOC se noie.</text></svg>